<svg width="10" height="14" viewBox="0 0 10 14" fill="none" xmlns="http://www.w3.org/2000/svg">
<path d="M8.88975 6.45372L2.65957 0.223657C2.51547 0.0794468 2.32312 2.50891e-07 2.11801 2.1503e-07C1.91291 1.79168e-07 1.72055 0.0794467 1.57645 0.223657L1.11765 0.682352C0.819095 0.981244 0.819095 1.46703 1.11764 1.76547L6.34928 6.9971L1.11184 12.2345C0.967742 12.3787 0.888181 12.571 0.888181 12.776C0.888181 12.9812 0.967742 13.1734 1.11184 13.3178L1.57065 13.7763C1.71486 13.9206 1.9071 14 2.1122 14C2.31731 14 2.50966 13.9206 2.65376 13.7763L8.88975 7.54059C9.03418 7.39592 9.11352 7.20277 9.11306 6.99744C9.11352 6.79131 9.03418 6.59827 8.88975 6.45372Z" fill="#D64374"/>
</svg>
